<?xml version="1.0" encoding="UTF-8" standalone="no"?>
<!-- Created with Inkscape (http://www.inkscape.org/) -->

<svg
   width="133.81935mm"
   height="133.86748mm"
   viewBox="0 0 133.81935 133.86748"
   version="1.1"
   id="svg1"
   xml:space="preserve"
   xmlns="http://www.w3.org/2000/svg"
   xmlns:svg="http://www.w3.org/2000/svg"><defs
     id="defs1" /><g
     id="layer1"
     transform="translate(-1165.0343,750.04428)"><rect
       style="opacity:0;fill:#000000;fill-opacity:1;stroke:#ffffff;stroke-width:1.30731;stroke-dasharray:none;stroke-opacity:1"
       id="rect45"
       width="624.70441"
       height="361.26126"
       x="610.96735"
       y="-622.3266"
       ry="7.973743" /><path
       style="fill:#ffffff;stroke-width:1.68873"
       d="m 1221.1089,-616.71742 c -17.5761,-3.10549 -32.6931,-12.34363 -43.3034,-26.46305 -3.3363,-4.43965 -8.1704,-13.79175 -9.8654,-19.08552 -1.3603,-4.24825 -2.9058,-11.60835 -2.9058,-13.83846 v -1.60535 h 44.2342 44.2341 v -5.36171 -5.36167 h -44.2341 -44.2342 v -1.60547 c 0,-2.22997 1.5455,-9.59012 2.9058,-13.83846 1.695,-5.29365 6.5291,-14.64583 9.8654,-19.0855 10.8553,-14.44538 26.2504,-23.68965 44.193,-26.53668 3.4099,-0.54107 6.3118,-0.64881 12.2873,-0.45646 11.3299,0.36459 17.3668,1.86064 27.4828,6.8103 18.526,9.06476 31.4218,25.62021 36.0467,46.27623 0.9021,4.02931 1.0384,5.84047 1.0384,13.79771 0,7.9572 -0.1368,9.76845 -1.0384,13.7977 -4.6249,20.65606 -17.5207,37.21152 -36.0467,46.27623 -6.2701,3.06789 -9.3823,4.19012 -15.6383,5.63885 -5.3038,1.22824 -19.6224,1.59524 -25.0214,0.64131 z"
       id="path47" /></g></svg>
