<?xml version="1.0" encoding="UTF-8" standalone="no"?>
<!-- Created with Inkscape (http://www.inkscape.org/) -->

<svg
   width="130.58002mm"
   height="130.8634mm"
   viewBox="0 0 130.58002 130.8634"
   version="1.1"
   id="svg1"
   xml:space="preserve"
   xmlns="http://www.w3.org/2000/svg"
   xmlns:svg="http://www.w3.org/2000/svg"><defs
     id="defs1" /><g
     id="layer1"
     transform="translate(-954.55549,752.26613)"><rect
       style="opacity:0;fill:#000000;fill-opacity:1;stroke:#ffffff;stroke-width:1.30731;stroke-dasharray:none;stroke-opacity:1"
       id="rect45"
       width="624.70441"
       height="361.26126"
       x="610.96735"
       y="-622.3266"
       ry="7.973743" /><path
       style="fill:#ffffff"
       d="m 1003.8157,-623.00183 c -11.74142,-2.98614 -20.52518,-8.07247 -29.80826,-17.26079 -8.8703,-8.77975 -13.3989,-15.93923 -17.19783,-27.18884 -1.9288,-5.71167 -2.25408,-8.53262 -2.25408,-19.54799 0,-10.92466 0.33564,-13.88335 2.21759,-19.54799 3.33914,-10.05075 8.24095,-18.08581 15.93915,-26.12754 7.95141,-8.30622 14.48897,-12.56682 25.54925,-16.65071 7.23998,-2.67331 8.72288,-2.87914 21.13608,-2.93384 12.1817,-0.0537 14.0175,0.17143 20.9784,2.57237 10.5729,3.64677 16.5509,7.30489 24.9038,15.23934 8.0271,7.62495 13.5626,16.15176 17.3033,26.65384 2.2055,6.19203 2.489,8.45439 2.5461,20.31775 0.056,11.62263 -0.2275,14.21345 -2.19,20.02477 -3.6926,10.93485 -8.3774,18.42898 -16.7332,26.76785 -8.4585,8.44124 -14.9147,12.55579 -25.5348,16.27331 -9.6044,3.36197 -26.6178,4.01215 -36.8555,1.40847 z m 25.1829,-26.29859 c 14.3135,-4.25208 23.4161,-16.48625 23.4161,-31.4721 0,-7.64479 -2.5203,-13.62963 -9.282,-22.04122 -2.5651,-3.19104 -8.6857,-10.80761 -13.6013,-16.9257 -4.9157,-6.11809 -9.2613,-11.1238 -9.657,-11.1238 -0.3957,0 -4.5754,4.8274 -9.2882,10.72756 -4.7129,5.90015 -10.83983,13.51672 -13.61546,16.9257 -7.29243,8.95647 -9.49668,14.20435 -9.50806,22.63684 -0.006,4.44142 0.62317,8.56765 1.76433,11.57093 5.95231,15.66522 23.72419,24.46894 39.77159,19.70179 z m -18.6176,-7.73565 c -7.9045,-3.42898 -13.29857,-10.02191 -15.21228,-18.59343 -1.30631,-5.85097 -0.42859,-10.4155 3.13977,-16.32826 3.54461,-5.8734 4.97301,-6.5822 5.78781,-2.87215 0.8877,4.04147 4.699,8.10406 14.3328,15.27774 9.4084,7.00582 12.8468,11.7156 12.8724,17.63234 0.014,3.24048 -0.3347,3.77091 -3.2912,5.0062 -4.2507,1.77605 -13.3993,1.71251 -17.6293,-0.12244 z m 27.9526,-9.63978 c -3.2043,-9.25653 -5.2268,-11.70327 -16.551,-20.0233 -13.4065,-9.84984 -15.1668,-15.97963 -7.4113,-25.8082 2.3795,-3.01555 4.8247,-5.48282 5.4339,-5.48282 1.5558,0 19.4931,21.89785 22.6061,27.59752 1.9245,3.52363 2.5725,6.04887 2.5695,10.01239 -0.01,7.89096 -5.0557,18.30187 -6.6472,13.70441 z"
       id="path46" /></g></svg>
